<svg width="178" height="36" viewBox="0 0 178 36" fill="none" xmlns="http://www.w3.org/2000/svg">
<g clip-path="url(#clip0_2526_3495)">
<path d="M113.881 28.4246L107.087 19.2734L100.3 28.4246H97.5036L105.672 17.3681L98.2119 7.31787H101.008L107.087 15.5145L113.165 7.31787H115.959L108.505 17.3662L116.675 28.4246H113.881ZM60.9369 28.4209L52.7594 17.3662L60.2193 7.31787H57.4232L51.3427 15.5164L45.2679 7.31787H42.4793L49.9354 17.3662L41.7598 28.4209H44.5595L51.3465 19.2734L58.139 28.4209H60.9369Z" fill="#FBF503"/>
<path d="M76.4833 18.1655C76.062 17.8091 75.5928 17.5128 75.089 17.285C75.862 16.8774 76.5084 16.2685 76.959 15.5238C77.4096 14.7791 77.6473 13.9267 77.6465 13.0581C77.6465 11.7077 77.1451 7.31615 70.7328 7.31615H62.0967V16.4155H59.2206C58.8477 16.8984 57.9996 18.0582 57.6771 18.5336H62.0967V28.4211L70.7347 28.4229C75.4134 28.4229 78.3194 26.0662 78.3194 22.2611C78.3194 20.5999 77.6875 19.1885 76.4833 18.1655ZM64.4846 9.51931H70.7347C72.4253 9.51931 75.2587 9.93738 75.2587 12.8731C75.2587 15.0929 73.609 16.4155 70.7347 16.4155H64.4846V9.51931ZM70.7328 26.2216H64.4827V18.5392H70.7328C73.102 18.5392 75.9372 19.1885 75.9372 22.2148C75.9372 25.6999 72.677 26.2216 70.7328 26.2216ZM89.5539 6.83149C83.5797 6.83149 79.4043 11.3655 79.4043 17.8584C79.4043 24.3606 83.5797 28.8909 89.5539 28.8909C95.5226 28.8909 99.6868 24.3606 99.6868 17.8584C99.6868 11.3655 95.5226 6.83149 89.5539 6.83149ZM89.5539 26.6581C85.002 26.6581 81.8126 23.038 81.8126 17.8584C81.8126 12.6789 85.002 9.06055 89.5539 9.06055C94.0984 9.06055 97.2691 12.6789 97.2691 17.8584C97.2691 23.038 94.0984 26.6581 89.5539 26.6581ZM5.296 5.05933L5.27922 5.07413V5.07598C3.60649 6.71034 2.27865 8.65905 1.37324 10.8083C0.467826 12.9576 0.00299002 15.2644 0.00587583 17.5939C0.000579165 21.4449 1.27414 25.1904 3.62955 28.2509C3.65378 28.2805 3.69107 28.2971 3.72462 28.2805C3.75631 28.262 3.75817 28.2231 3.74512 28.1898C2.3937 24.0425 9.3018 13.9904 12.8714 9.77644C12.8826 9.76164 12.8975 9.745 12.8975 9.72465C12.8975 9.7006 12.8807 9.6821 12.864 9.6673C6.85992 3.73669 5.25685 5.09263 5.27922 5.07413L5.296 5.05933ZM30.1734 5.05933L30.1901 5.07413V5.07598C31.8627 6.71037 33.1903 8.65913 34.0954 10.8084C35.0005 12.9577 35.4649 15.2645 35.4616 17.5939C35.4669 21.4449 34.1933 25.1904 31.8379 28.2509C31.8156 28.2805 31.7764 28.2971 31.7429 28.2805C31.713 28.262 31.7112 28.2231 31.7224 28.1898C33.0738 24.0425 26.1713 13.983 22.6035 9.76719C22.5905 9.75239 22.5774 9.73575 22.5774 9.71725C22.5774 9.69135 22.5923 9.67285 22.611 9.65805C28.6169 3.72744 30.2088 5.09263 30.1883 5.07413L30.1734 5.05933ZM17.7347 0C21.3117 0 24.2551 0.97302 26.9691 2.57499C27.0026 2.59164 27.012 2.62863 26.9989 2.66193C26.9859 2.69338 26.9486 2.70078 26.9132 2.69153C23.4815 1.95529 18.2641 4.8984 17.772 5.19252C17.7608 5.19992 17.7496 5.20732 17.7347 5.20732C17.7179 5.20732 17.7067 5.19992 17.6955 5.19252C16.387 4.44703 11.5647 1.93864 8.52823 2.71003C8.49467 2.71743 8.45739 2.71188 8.44248 2.67858C8.43612 2.66295 8.43563 2.64557 8.44111 2.62961C8.44658 2.61365 8.45765 2.60017 8.4723 2.59164C11.1863 0.97302 14.1669 0 17.7347 0ZM17.7347 14.1106C17.7552 14.1106 17.7775 14.1273 17.7906 14.1384C23.0956 18.1415 32.1753 28.0381 29.4035 30.837L29.4072 30.8333L29.4054 30.837H29.4016C26.1748 33.6477 22.0264 35.1952 17.7328 35.1896C13.4388 35.1948 9.28989 33.6474 6.06211 30.837L6.05838 30.8333L6.06211 30.837C3.29589 28.0381 12.3737 18.1415 17.6732 14.1384C17.6881 14.1273 17.7123 14.1106 17.7347 14.1106ZM157.947 7.318V24.6381L145.091 7.30505L142.983 7.30135V28.3896H145.35V11.4524L157.943 28.4026L160.316 28.4063V7.318H157.947ZM130.693 6.82779C124.719 6.82779 120.542 11.3636 120.542 17.8547C120.542 24.3569 124.719 28.8946 130.693 28.8946C136.662 28.8946 140.826 24.3569 140.826 17.8547C140.826 11.3655 136.662 6.82779 130.693 6.82779ZM130.693 26.6581C126.141 26.6581 122.952 23.038 122.952 17.8547C122.952 12.677 126.141 9.05685 130.693 9.05685C135.238 9.05685 138.408 12.677 138.408 17.8547C138.408 23.038 135.238 26.6581 130.693 26.6581ZM165.355 26.3418V18.5392H177.055V16.4747H165.355V9.36578H177.849V7.3032H162.974V28.4063H177.997V26.3418H165.355Z" fill="#FBF503"/>
</g>
<defs>
<clipPath id="clip0_2526_3495">
<rect width="178" height="35.1878" fill="white"/>
</clipPath>
</defs>
</svg>
